<svg width="131" height="134" viewBox="0 0 131 134" fill="none" xmlns="http://www.w3.org/2000/svg">
<rect width="131" height="134" rx="24" fill="#F7F6F6"/>
<ellipse cx="64.8206" cy="66.816" rx="6.53213" ry="6.49234" fill="#292929"/>
<path d="M107.957 58.3788C109.684 65.5663 88.3634 25.6625 85.4693 24.7045C82.5752 23.7464 56.1428 52.2738 56.4705 49.663C56.7982 47.0522 74.7168 30.9314 74.7168 30.9314L85.6671 23.8781C99.4285 40.9601 106.23 51.1914 107.957 58.3788Z" fill="#292929" stroke="black" stroke-width="3"/>
<path d="M107.976 59.2928L105.31 59.3065L104.656 57.0627L103.174 53.6845L99.5941 45.9901L107.976 59.2928Z" fill="#292929" stroke="black" stroke-width="3"/>
<path d="M61.4378 47.3335L57.4927 50.0799L56.6786 49.7113L58.2446 48.2323L61.0451 45.8035L66.9435 40.0683L61.4378 47.3335Z" fill="#292929" stroke="black" stroke-width="3"/>
<path d="M79.3314 24.4457C86.3079 26.4589 41.7862 25.6975 39.5418 27.7942C37.2974 29.8909 48.5618 67.4355 46.4989 65.8563C44.436 64.2771 39.5418 40.4134 39.5418 40.4134L38.9353 27.2108C60.2811 23.422 72.3549 22.4325 79.3314 24.4457Z" fill="#292929" stroke="black" stroke-width="3"/>
<path d="M80.1194 24.8797L78.8156 27.2532L76.581 26.7268L72.9711 26.3758L64.6486 25.757L80.1194 24.8797Z" fill="#292929" stroke="black" stroke-width="3"/>
<path d="M46.965 60.2966L47.3584 65.1544L46.6427 65.6954L46.1551 63.5752L45.4675 59.8904L43.4913 51.8235L46.965 60.2966Z" fill="#292929" stroke="black" stroke-width="3"/>
<path d="M95.4319 101.289C90.3517 106.569 112.386 67.071 111.662 64.0545C110.938 61.0381 73.2665 53.0945 75.6142 52.0058C77.9619 50.9171 100.818 57.9946 100.818 57.9946L112.455 63.7916C105.46 84.7234 100.512 96.0091 95.4319 101.289Z" fill="#292929" stroke="black" stroke-width="3"/>
<path d="M94.6806 101.786L93.2671 99.479L94.7926 97.731L96.8276 94.6673L101.356 87.5127L94.6806 101.786Z" fill="#292929" stroke="black" stroke-width="3"/>
<path d="M80.168 55.0929L75.8047 53.1124L75.6836 52.2117L77.7396 52.7933L81.2362 53.9472L89.1171 56.0515L80.168 55.0929Z" fill="#292929" stroke="black" stroke-width="3"/>
<path d="M20.7581 77.1406C18.7904 70.0178 41.4395 109.151 44.3641 110.008C47.2886 110.864 72.7466 81.4273 72.5068 84.048C72.2671 86.6688 54.9009 103.408 54.9009 103.408L44.1941 110.84C29.8667 94.2504 22.7257 84.2633 20.7581 77.1406Z" fill="#292929" stroke="black" stroke-width="3"/>
<path d="M20.7084 76.2278L23.3721 76.1208L24.1013 78.3404L25.6962 81.6646L29.5323 89.2291L20.7084 76.2278Z" fill="#292929" stroke="black" stroke-width="3"/>
<path d="M67.621 86.5502L71.4714 83.6673L72.2975 84.007L70.7821 85.5401L68.0649 88.0655L62.3628 94.0039L67.621 86.5502Z" fill="#292929" stroke="black" stroke-width="3"/>
<path d="M34.8788 33.8157C40.0051 28.5826 17.6253 67.8773 18.3228 70.9003C19.0203 73.9232 56.6206 82.2108 54.2634 83.278C51.9063 84.3452 29.1129 77.059 29.1129 77.059L17.5279 71.1559C24.7061 50.2889 29.7525 39.0488 34.8788 33.8157Z" fill="#292929" stroke="black" stroke-width="3"/>
<path d="M35.6346 33.3254L37.0278 35.6453L35.487 37.3794L33.4252 40.4243L28.8343 47.5373L35.6346 33.3254Z" fill="#292929" stroke="black" stroke-width="3"/>
<path d="M49.7371 80.1493L54.0828 82.1697L54.1961 83.0714L52.1452 82.471L48.6589 81.2852L40.7968 79.1089L49.7371 80.1493Z" fill="#292929" stroke="black" stroke-width="3"/>
<path d="M90.428 94.3019L90.6408 97.6543C89.8816 94.2467 88.8702 90.263 87.8586 86.3668C87.5576 85.2074 87.2566 84.0559 86.9621 82.9292C86.0602 79.4791 85.2194 76.2625 84.6258 73.7673C84.3117 72.4469 84.07 71.3415 83.925 70.5162C83.9441 70.5591 83.9633 70.6029 83.9828 70.6478C84.3188 71.4241 84.6921 72.4618 85.0861 73.6784C85.8733 76.1094 86.7301 79.2139 87.5238 82.2785C88.3171 85.3414 89.0453 88.3571 89.5753 90.6075C89.8403 91.7326 90.0557 92.6661 90.2048 93.3182C90.2793 93.6442 90.3373 93.8999 90.3766 94.074L90.4214 94.2725L90.428 94.3019ZM68.5874 109.438C73.3303 109.206 78.2579 108.965 82.3042 108.671C75.9821 109.78 70.6712 110.537 66.2005 110.939C59.9971 111.497 55.4478 111.367 52.0753 110.563C52.654 110.468 53.4363 110.374 54.3991 110.284C57.6085 109.982 62.5731 109.732 67.8435 109.475C68.0909 109.462 68.3389 109.45 68.5874 109.438Z" fill="#292929" stroke="black" stroke-width="3"/>
<path d="M57.7045 109.368L57.7045 109.368L57.7158 109.369L58.4295 109.409L51.4862 109.93L52.1505 108.668L54.0226 109.073L54.0555 109.08L54.0891 109.083L57.7045 109.368Z" fill="#292929" stroke="black" stroke-width="3"/>
<path d="M84.1691 74.9653L84.1719 74.979L84.1755 74.9926L84.581 76.5305L83.6412 74.3485L83.2894 70.7811L83.4193 71.3038L84.1691 74.9653Z" fill="#292929" stroke="black" stroke-width="3"/>
</svg>
