<svg width="429" height="150" viewBox="0 0 429 245" fill="none" xmlns="http://www.w3.org/2000/svg">
<path d="M32.512 183.4C30.976 182.973 29.7387 182.589 28.8 182.248C27.8613 181.992 27.392 181.864 27.392 181.864C27.5627 181.437 27.4773 181.053 27.136 180.712C26.88 180.371 26.2827 180.157 25.344 180.072C24.064 179.304 22.8693 178.323 21.76 177.128C20.736 176.019 19.8827 174.909 19.2 173.8C18.5173 172.691 18.0053 171.752 17.664 170.984C17.0667 169.704 16.768 168.936 16.768 168.68C16.8533 168.339 17.3653 167.955 18.304 167.528C19.2427 166.845 19.9253 166.632 20.352 166.888C20.864 167.144 21.4613 167.997 22.144 169.448C23.2533 171.411 25.1307 172.904 27.776 173.928C30.5067 174.952 33.536 175.421 36.864 175.336C40.2773 175.165 43.52 174.397 46.592 173.032C49.7493 171.752 51.712 170.429 52.48 169.064C53.3333 167.613 53.0347 165.779 51.584 163.56C51.328 162.877 51.0293 162.323 50.688 161.896C50.3467 161.469 49.792 160.915 49.024 160.232C48.3413 159.549 47.1893 158.44 45.568 156.904C44.288 156.307 43.0933 155.752 41.984 155.24C40.96 154.728 39.8507 154.173 38.656 153.576C37.2907 152.893 35.6267 151.912 33.664 150.632C31.7867 149.267 29.9947 147.773 28.288 146.152C26.5813 144.531 25.344 143.037 24.576 141.672C23.2107 140.392 22.1867 138.643 21.504 136.424C20.8213 134.12 20.5653 131.688 20.736 129.128C20.9067 126.568 21.5467 124.264 22.656 122.216C23.168 121.021 24.0213 119.571 25.216 117.864C26.496 116.072 27.904 114.28 29.44 112.488C30.976 110.696 32.4693 109.075 33.92 107.624C35.3707 106.173 36.5653 105.149 37.504 104.552C38.1867 103.869 38.912 103.187 39.68 102.504C40.448 101.736 40.832 101.352 40.832 101.352C40.9173 100.925 41.0453 100.712 41.216 100.712C41.472 100.712 41.6 100.712 41.6 100.712C42.0267 100.456 42.9653 100.029 44.416 99.432C45.8667 98.8347 47.4453 97.7253 49.152 96.104C54.8693 93.3733 59.52 91.368 63.104 90.088C66.688 88.808 69.632 88.168 71.936 88.168C74.0693 88.2533 75.9893 88.7653 77.696 89.704C79.488 90.5573 80.9387 91.7093 82.048 93.16C83.2427 94.6107 83.968 96.36 84.224 98.408C84.8213 100.456 84.6507 102.845 83.712 105.576C82.7733 108.221 81.3653 110.739 79.488 113.128C77.696 115.432 75.7333 117.181 73.6 118.376C71.2107 119.4 69.5893 119.869 68.736 119.784C67.968 119.613 67.6267 118.717 67.712 117.096C67.712 116.413 67.9253 115.603 68.352 114.664C68.864 113.725 70.1867 112.061 72.32 109.672C75.0507 105.661 76.7147 102.461 77.312 100.072C77.9093 97.6827 77.3547 96.36 75.648 96.104C75.136 95.9333 74.1973 95.9333 72.832 96.104C71.552 96.2747 70.1013 96.5307 68.48 96.872C66.944 97.128 65.6213 97.4267 64.512 97.768C63.4027 98.024 62.848 98.2373 62.848 98.408C62.848 98.408 62.848 98.536 62.848 98.792C62.848 99.048 62.6773 99.1333 62.336 99.048C62.1653 99.048 61.44 99.3893 60.16 100.072C58.88 100.755 57.344 101.651 55.552 102.76C53.76 103.869 51.968 104.979 50.176 106.088C48.384 107.197 46.848 108.179 45.568 109.032C44.3733 109.8 43.7333 110.269 43.648 110.44C43.4773 111.379 42.496 112.232 40.704 113C38.9973 114.024 37.4187 115.517 35.968 117.48C34.6027 119.443 33.0667 121.875 31.36 124.776C29.9093 126.739 28.8853 128.872 28.288 131.176C27.6907 133.395 27.6907 135.187 28.288 136.552C28.7147 137.917 30.0373 139.667 32.256 141.8C34.4747 143.933 37.248 145.981 40.576 147.944C43.4773 149.565 46.08 151.187 48.384 152.808C50.688 154.344 52.5653 155.837 54.016 157.288C55.552 158.739 56.576 160.019 57.088 161.128C58.112 162.579 58.8373 164.072 59.264 165.608C59.776 167.059 60.032 168.467 60.032 169.832C60.1173 171.197 59.9893 172.435 59.648 173.544C59.0507 174.909 57.984 176.317 56.448 177.768C54.9973 179.219 53.76 179.901 52.736 179.816C51.7973 180.072 51.072 180.371 50.56 180.712C50.1333 181.053 49.6213 181.352 49.024 181.608C48.4267 181.949 47.1467 182.291 45.184 182.632C43.3067 182.973 41.216 183.187 38.912 183.272C36.608 183.443 34.4747 183.485 32.512 183.4ZM78.958 172.904C78.2753 172.221 77.7633 171.368 77.422 170.344C77.166 169.32 77.0807 168.296 77.166 167.272C77.2513 166.248 77.4647 165.395 77.806 164.712C77.806 164.029 77.8913 163.517 78.062 163.176C78.318 162.749 78.4033 162.365 78.318 162.024C78.2327 161.683 78.318 161.085 78.574 160.232C78.83 159.379 79.086 158.568 79.342 157.8C79.9393 156.435 80.5793 154.813 81.262 152.936C81.9447 150.973 82.5847 149.053 83.182 147.176C83.7793 145.299 84.2913 143.677 84.718 142.312C85.1447 140.947 85.4007 140.093 85.486 139.752C85.486 138.728 86.1687 138.173 87.534 138.088C88.558 137.747 89.326 137.747 89.838 138.088C90.35 138.344 91.0327 139.155 91.886 140.52C92.5687 141.203 92.8247 142.227 92.654 143.592C92.4833 144.957 91.9287 146.664 90.99 148.712C90.6487 149.395 90.222 150.376 89.71 151.656C89.2833 152.936 88.9847 154.088 88.814 155.112C88.4727 155.795 88.046 156.776 87.534 158.056C87.1073 159.251 86.7233 160.403 86.382 161.512C86.2113 161.939 86.0407 162.579 85.87 163.432C85.6993 164.2 85.486 165.053 85.23 165.992C84.974 166.845 84.6327 167.613 84.206 168.296C83.438 171.795 82.7127 173.843 82.03 174.44C81.4327 175.037 80.4087 174.525 78.958 172.904ZM91.374 120.936C90.9473 120.509 90.5633 119.912 90.222 119.144C89.8807 118.291 89.6673 117.523 89.582 116.84C89.4967 116.072 89.582 115.688 89.838 115.688C90.5207 115.603 91.3313 114.877 92.27 113.512C93.2087 112.147 93.5927 110.952 93.422 109.928C93.422 109.587 93.55 109.288 93.806 109.032C94.062 108.691 94.3607 108.477 94.702 108.392C95.726 107.709 96.7073 107.624 97.646 108.136C98.67 108.563 99.6087 109.459 100.462 110.824C101.23 112.445 101.443 113.811 101.102 114.92C100.761 115.944 99.822 117.395 98.286 119.272C97.006 120.979 95.8113 121.917 94.702 122.088C93.678 122.259 92.5687 121.875 91.374 120.936ZM105.265 177C103.644 177.427 102.321 177.085 101.297 175.976C100.358 174.867 99.8037 173.16 99.633 170.856C99.4623 168.552 99.7183 165.821 100.401 162.664C100.828 161.64 101.169 160.659 101.425 159.72C101.681 158.696 101.809 157.885 101.809 157.288C101.98 156.435 102.321 155.197 102.833 153.576C103.345 151.869 103.9 150.12 104.497 148.328C105.094 146.536 105.649 144.957 106.161 143.592C106.758 142.141 107.142 141.245 107.313 140.904C107.654 140.904 107.953 140.605 108.209 140.008C108.465 139.411 108.593 138.813 108.593 138.216C108.593 137.533 108.721 136.765 108.977 135.912C109.318 135.059 109.66 134.461 110.001 134.12C110.001 133.693 110.086 133.224 110.257 132.712C110.513 132.115 110.641 131.645 110.641 131.304C110.641 130.963 110.726 130.621 110.897 130.28C111.153 129.939 111.281 129.597 111.281 129.256C111.878 128.147 112.646 126.397 113.585 124.008C114.609 121.533 115.676 118.803 116.785 115.816C117.98 112.829 119.089 109.885 120.113 106.984C121.137 104.083 121.948 101.651 122.545 99.688C123.228 97.64 123.569 96.4027 123.569 95.976C123.569 95.2933 123.74 94.7813 124.081 94.44C124.422 94.0987 124.934 93.928 125.617 93.928C125.873 93.672 126.172 93.5013 126.513 93.416C126.94 93.3307 127.324 93.288 127.665 93.288C127.665 93.288 127.836 93.4587 128.177 93.8C128.518 94.1413 129.03 94.6533 129.713 95.336C130.396 95.9333 130.78 96.616 130.865 97.384C131.036 98.152 131.121 99.048 131.121 100.072C131.121 101.181 130.993 102.163 130.737 103.016C130.481 103.869 129.969 105.107 129.201 106.728C128.433 108.349 127.238 110.867 125.617 114.28C124.934 115.987 124.209 117.608 123.441 119.144C122.673 120.595 122.289 121.491 122.289 121.832C122.289 122.173 122.118 122.685 121.777 123.368C121.521 124.051 121.222 124.904 120.881 125.928C120.54 126.611 120.07 127.635 119.473 129C118.876 130.28 118.236 131.688 117.553 133.224C116.956 134.675 116.444 135.955 116.017 137.064C115.59 138.088 115.377 138.685 115.377 138.856C115.377 139.197 115.334 139.539 115.249 139.88C115.249 140.221 115.078 140.563 114.737 140.904C114.396 140.904 114.182 141.16 114.097 141.672C114.097 142.099 114.097 142.312 114.097 142.312C114.097 143.165 113.414 145.427 112.049 149.096C110.684 153.789 109.404 158.099 108.209 162.024C107.1 165.949 106.545 169.107 106.545 171.496C106.545 173.544 106.502 174.909 106.417 175.592C106.332 176.189 105.948 176.659 105.265 177ZM125.098 170.984C124.245 170.472 123.605 169.96 123.178 169.448C122.751 168.936 122.538 168.211 122.538 167.272C122.538 165.992 122.709 164.669 123.05 163.304C123.391 161.853 123.733 160.445 124.074 159.08C124.245 157.544 124.458 156.008 124.714 154.472C125.055 152.851 125.653 151.357 126.506 149.992C127.445 146.749 128.426 143.549 129.45 140.392C130.474 137.149 131.37 133.821 132.138 130.408C133.247 127.251 134.229 124.477 135.082 122.088C136.021 119.613 137.173 116.499 138.538 112.744C139.306 110.611 139.946 108.349 140.458 105.96C141.055 103.485 141.951 101.267 143.146 99.304C143.658 98.536 144.042 97.896 144.298 97.384C144.639 96.7867 144.981 96.232 145.322 95.72C145.407 95.3787 145.663 95.1653 146.09 95.08C146.602 94.9947 147.157 95.0373 147.754 95.208C148.351 95.3787 148.821 95.6773 149.162 96.104C149.418 96.0187 149.717 96.2747 150.058 96.872C150.485 97.384 150.869 97.9813 151.21 98.664C151.551 99.3467 151.679 99.944 151.594 100.456C151.594 100.797 151.509 101.267 151.338 101.864C151.253 102.461 151.039 103.016 150.698 103.528C150.357 103.869 150.015 104.381 149.674 105.064C149.418 105.661 148.991 106.515 148.394 107.624C148.053 108.733 147.754 109.885 147.498 111.08C147.242 112.189 146.901 113.213 146.474 114.152C146.133 115.176 145.706 116.157 145.194 117.096C144.767 118.035 144.469 118.803 144.298 119.4C143.701 121.363 142.975 123.283 142.122 125.16C141.354 127.037 140.671 129.043 140.074 131.176C139.477 133.224 138.879 135.357 138.282 137.576C137.685 139.709 136.831 141.757 135.722 143.72C135.125 144.659 134.698 145.853 134.442 147.304C134.186 148.755 133.93 150.205 133.674 151.656C133.162 153.192 132.693 154.643 132.266 156.008C131.925 157.288 131.754 158.099 131.754 158.44C131.242 160.317 130.858 162.195 130.602 164.072C130.431 165.864 130.005 167.443 129.322 168.808C129.237 169.661 129.066 170.344 128.81 170.856C128.554 171.368 128.127 171.667 127.53 171.752C126.933 171.752 126.122 171.496 125.098 170.984ZM153.635 206.44C153.55 206.611 153.166 206.44 152.483 205.928C151.886 205.416 151.288 204.776 150.691 204.008C150.094 203.325 149.838 202.728 149.923 202.216C149.582 201.021 149.624 199.528 150.051 197.736C150.563 196.029 151.63 193.469 153.251 190.056C154.104 188.691 154.872 187.069 155.555 185.192C156.323 183.315 157.176 181.437 158.115 179.56C158.542 178.792 159.48 177.128 160.931 174.568C162.382 172.008 163.918 169.107 165.539 165.864C167.246 162.621 168.654 159.549 169.763 156.648C167.544 158.952 165.496 161.299 163.619 163.688C161.742 165.992 159.992 167.869 158.371 169.32C156.835 170.771 155.384 171.453 154.019 171.368C152.91 171.112 151.715 170.728 150.435 170.216C149.24 169.619 148.43 168.595 148.003 167.144C147.662 165.267 147.534 162.877 147.619 159.976C147.79 157.075 148.344 152.68 149.283 146.792C149.966 143.891 150.35 141.672 150.435 140.136C150.606 138.515 150.563 137.32 150.307 136.552C150.051 135.784 149.582 135.101 148.899 134.504C147.79 133.48 147.192 132.584 147.107 131.816C147.107 130.963 147.704 130.237 148.899 129.64C150.691 129.213 151.971 129.085 152.739 129.256C153.507 129.341 154.446 130.024 155.555 131.304C156.238 132.413 156.835 133.48 157.347 134.504C157.944 135.443 158.243 137.107 158.243 139.496C158.243 140.52 158.072 141.885 157.731 143.592C157.475 145.299 157.219 146.92 156.963 148.456C156.792 149.907 156.664 150.931 156.579 151.528C155.726 154.685 155.171 157.416 154.915 159.72C154.744 162.024 154.872 163.176 155.299 163.176C157.006 161.811 158.627 160.275 160.163 158.568C161.784 156.776 163.448 154.771 165.155 152.552C166.947 150.248 168.91 147.645 171.043 144.744C171.811 143.293 172.579 141.885 173.347 140.52C174.115 139.155 174.755 137.747 175.267 136.296C175.779 135.187 176.291 134.291 176.803 133.608C177.315 132.925 177.742 132.541 178.083 132.456C178.51 132.285 179.022 132.328 179.619 132.584C180.302 132.84 180.899 133.139 181.411 133.48C182.008 133.736 182.307 133.949 182.307 134.12C182.392 134.205 182.606 134.291 182.947 134.376C183.288 134.461 183.63 134.547 183.971 134.632C184.398 134.632 184.611 134.76 184.611 135.016C184.611 135.187 184.398 135.741 183.971 136.68C183.63 137.619 183.203 138.685 182.691 139.88C182.264 140.989 181.88 142.013 181.539 142.952C181.198 143.805 181.07 144.317 181.155 144.488C181.326 144.659 181.198 145.299 180.771 146.408C180.344 147.432 179.832 148.584 179.235 149.864C178.723 151.144 178.254 152.296 177.827 153.32C176.974 156.136 175.992 158.952 174.883 161.768C173.774 164.499 172.451 167.229 170.915 169.96C170.403 170.984 169.635 172.563 168.611 174.696C167.672 176.829 166.734 178.92 165.795 180.968C164.942 183.101 164.259 184.723 163.747 185.832C163.406 186.515 162.894 187.581 162.211 189.032C161.614 190.568 160.931 192.232 160.163 194.024C159.48 195.816 158.798 197.48 158.115 199.016C157.432 200.637 156.92 201.875 156.579 202.728C156.408 204.349 156.024 205.544 155.427 206.312C155.086 206.312 154.702 206.312 154.275 206.312C153.848 206.397 153.635 206.44 153.635 206.44ZM216.972 181.608C215.607 181.693 213.729 181.693 211.34 181.608C208.951 181.523 206.433 181.096 203.788 180.328C201.228 179.645 198.924 178.408 196.876 176.616C194.828 174.739 193.463 172.093 192.78 168.68C191.756 163.901 191.543 158.696 192.14 153.064C192.737 147.432 193.761 141.885 195.212 136.424C195.639 134.888 196.449 132.925 197.644 130.536C198.839 128.061 200.247 125.416 201.868 122.6C203.575 119.784 205.324 117.053 207.116 114.408C208.908 111.677 210.572 109.331 212.108 107.368C213.217 106.088 214.54 104.68 216.076 103.144C217.612 101.608 219.191 100.157 220.812 98.792C222.433 97.3413 223.927 96.104 225.292 95.08C226.657 94.056 227.681 93.416 228.364 93.16C229.559 92.4773 230.625 92.136 231.564 92.136C232.503 92.0507 233.868 92.2213 235.66 92.648C236.855 92.7333 238.092 93.16 239.372 93.928C240.652 94.6107 241.761 95.3787 242.7 96.232C243.724 97.0853 244.279 97.896 244.364 98.664C244.449 99.176 245.388 99.1333 247.18 98.536C247.777 97.8533 248.332 97.4267 248.844 97.256C249.441 97.0853 249.953 97.0853 250.38 97.256C250.807 97.4267 251.063 97.8107 251.148 98.408C250.636 99.176 250.721 99.8587 251.404 100.456C251.66 100.371 251.703 100.797 251.532 101.736C251.361 102.589 251.063 103.613 250.636 104.808C250.209 106.003 249.697 107.069 249.1 108.008C249.1 108.008 249.015 108.221 248.844 108.648C248.759 109.075 248.716 109.288 248.716 109.288C248.887 109.715 248.801 110.141 248.46 110.568C248.119 110.995 247.82 111.379 247.564 111.72C247.308 112.147 246.967 112.915 246.54 114.024C246.199 115.048 245.857 116.243 245.516 117.608C245.175 118.888 244.876 120.083 244.62 121.192C244.449 122.216 244.364 122.941 244.364 123.368C244.535 123.965 244.279 124.307 243.596 124.392C242.913 124.392 241.847 124.136 240.396 123.624C238.519 122.941 237.324 122.045 236.812 120.936C236.385 119.827 236.641 117.651 237.58 114.408C238.775 110.483 239.457 107.581 239.628 105.704C239.799 103.827 239.287 102.419 238.092 101.48C237.665 100.712 236.727 100.243 235.276 100.072C233.825 99.816 232.631 99.9867 231.692 100.584C230.412 101.096 228.663 102.504 226.444 104.808C224.225 107.027 221.921 109.587 219.532 112.488C217.143 115.389 215.009 118.163 213.132 120.808C209.207 126.269 206.135 131.944 203.916 137.832C201.783 143.72 200.545 149.395 200.204 154.856C199.863 160.317 200.417 165.267 201.868 169.704C202.039 170.045 202.551 170.771 203.404 171.88C204.257 172.989 204.94 173.715 205.452 174.056C208.183 174.653 212.023 174.696 216.972 174.184C220.641 173.501 223.329 172.477 225.036 171.112C226.828 169.747 228.535 167.869 230.156 165.48C231.095 164.115 232.033 163.219 232.972 162.792C233.996 162.365 234.849 162.408 235.532 162.92C236.3 163.432 236.769 164.456 236.94 165.992C236.94 166.419 236.556 167.315 235.788 168.68C235.105 169.96 234.295 171.197 233.356 172.392C232.503 173.587 231.82 174.269 231.308 174.44C230.967 174.525 230.753 174.611 230.668 174.696C230.668 174.781 230.711 175.037 230.796 175.464C230.796 175.805 230.241 176.317 229.132 177C228.023 177.683 226.657 178.365 225.036 179.048C223.5 179.816 221.964 180.413 220.428 180.84C218.977 181.352 217.825 181.608 216.972 181.608ZM253.89 177C252.269 177.427 250.946 177.085 249.922 175.976C248.983 174.867 248.429 173.16 248.258 170.856C248.087 168.552 248.343 165.821 249.026 162.664C249.453 161.64 249.794 160.659 250.05 159.72C250.306 158.696 250.434 157.885 250.434 157.288C250.605 156.435 250.946 155.197 251.458 153.576C251.97 151.869 252.525 150.12 253.122 148.328C253.719 146.536 254.274 144.957 254.786 143.592C255.383 142.141 255.767 141.245 255.938 140.904C256.279 140.904 256.578 140.605 256.834 140.008C257.09 139.411 257.218 138.813 257.218 138.216C257.218 137.533 257.346 136.765 257.602 135.912C257.943 135.059 258.285 134.461 258.626 134.12C258.626 133.693 258.711 133.224 258.882 132.712C259.138 132.115 259.266 131.645 259.266 131.304C259.266 130.963 259.351 130.621 259.522 130.28C259.778 129.939 259.906 129.597 259.906 129.256C260.503 128.147 261.271 126.397 262.21 124.008C263.234 121.533 264.301 118.803 265.41 115.816C266.605 112.829 267.714 109.885 268.738 106.984C269.762 104.083 270.573 101.651 271.17 99.688C271.853 97.64 272.194 96.4027 272.194 95.976C272.194 95.2933 272.365 94.7813 272.706 94.44C273.047 94.0987 273.559 93.928 274.242 93.928C274.498 93.672 274.797 93.5013 275.138 93.416C275.565 93.3307 275.949 93.288 276.29 93.288C276.29 93.288 276.461 93.4587 276.802 93.8C277.143 94.1413 277.655 94.6533 278.338 95.336C279.021 95.9333 279.405 96.616 279.49 97.384C279.661 98.152 279.746 99.048 279.746 100.072C279.746 101.181 279.618 102.163 279.362 103.016C279.106 103.869 278.594 105.107 277.826 106.728C277.058 108.349 275.863 110.867 274.242 114.28C273.559 115.987 272.834 117.608 272.066 119.144C271.298 120.595 270.914 121.491 270.914 121.832C270.914 122.173 270.743 122.685 270.402 123.368C270.146 124.051 269.847 124.904 269.506 125.928C269.165 126.611 268.695 127.635 268.098 129C267.501 130.28 266.861 131.688 266.178 133.224C265.581 134.675 265.069 135.955 264.642 137.064C264.215 138.088 264.002 138.685 264.002 138.856C264.002 139.197 263.959 139.539 263.874 139.88C263.874 140.221 263.703 140.563 263.362 140.904C263.021 140.904 262.807 141.16 262.722 141.672C262.722 142.099 262.722 142.312 262.722 142.312C262.722 143.165 262.039 145.427 260.674 149.096C259.309 153.789 258.029 158.099 256.834 162.024C255.725 165.949 255.17 169.107 255.17 171.496C255.17 173.544 255.127 174.909 255.042 175.592C254.957 176.189 254.573 176.659 253.89 177ZM278.075 173.032C276.795 172.861 275.686 171.965 274.747 170.344C273.894 168.637 273.382 167.101 273.211 165.736C273.296 165.053 273.382 164.072 273.467 162.792C273.638 161.512 273.808 160.189 273.979 158.824C274.32 157.203 274.79 155.24 275.387 152.936C275.984 150.547 276.582 148.157 277.179 145.768C277.862 143.379 278.459 141.331 278.971 139.624C279.483 137.917 279.824 136.893 279.995 136.552C280.422 135.869 281.104 135.699 282.043 136.04C282.982 136.381 283.75 136.893 284.347 137.576C284.859 138.259 285.158 139.069 285.243 140.008C285.414 140.947 285.286 142.312 284.859 144.104C284.518 145.896 283.835 148.541 282.811 152.04C281.872 155.453 281.147 158.227 280.635 160.36C280.208 162.408 280.038 164.584 280.123 166.888C279.782 169.789 279.526 171.581 279.355 172.264C279.184 172.861 278.758 173.117 278.075 173.032ZM292.795 121.96C292.454 122.216 292.112 122.344 291.771 122.344C291.515 122.259 291.046 122.003 290.363 121.576C289.766 121.491 288.998 121.107 288.059 120.424C287.206 119.656 286.438 118.888 285.755 118.12C285.158 117.267 284.859 116.755 284.859 116.584C284.774 115.731 284.816 114.664 284.987 113.384C285.243 112.019 285.712 110.824 286.395 109.8C287.078 108.691 288.059 108.093 289.339 108.008C289.68 108.008 289.979 108.051 290.235 108.136C290.491 108.221 291.259 108.52 292.539 109.032C293.222 110.312 293.904 111.763 294.587 113.384C295.27 114.92 295.568 116.456 295.483 117.992C295.398 119.443 294.502 120.765 292.795 121.96ZM308.99 174.056C307.113 174.056 305.705 173.971 304.766 173.8C303.827 173.629 303.102 173.373 302.59 173.032C302.078 172.691 301.481 172.221 300.798 171.624C300.457 170.941 300.03 170.216 299.518 169.448C299.006 168.68 298.579 168.125 298.238 167.784C297.897 166.504 297.726 164.84 297.726 162.792C297.811 160.744 298.067 158.525 298.494 156.136C299.006 153.747 299.689 151.528 300.542 149.48C300.883 148.797 301.182 148.115 301.438 147.432C301.694 146.749 301.822 146.408 301.822 146.408C301.822 145.981 302.334 144.957 303.358 143.336C304.467 141.715 305.662 140.008 306.942 138.216C308.307 136.424 309.417 135.144 310.27 134.376C310.867 133.693 311.763 132.968 312.958 132.2C314.238 131.432 315.347 130.877 316.286 130.536C317.225 130.195 318.163 129.896 319.102 129.64C320.126 129.384 321.278 129.256 322.558 129.256C323.753 129.256 324.862 129.512 325.886 130.024C326.91 130.536 327.891 131.432 328.83 132.712C330.366 134.248 331.219 135.784 331.39 137.32C331.646 138.771 331.603 140.264 331.262 141.8C330.835 143.507 330.281 144.829 329.598 145.768C328.915 146.621 328.147 147.005 327.294 146.92C326.441 146.835 325.459 146.195 324.35 145C324.009 144.317 323.838 143.763 323.838 143.336C323.838 142.824 324.009 142.099 324.35 141.16C324.691 139.965 324.691 138.728 324.35 137.448C324.009 136.168 323.454 135.528 322.686 135.528C321.577 135.528 320.339 136.04 318.974 137.064C317.694 138.003 316.371 139.197 315.006 140.648C314.409 141.331 313.555 142.397 312.446 143.848C311.422 145.213 310.398 146.749 309.374 148.456C308.35 150.077 307.497 151.656 306.814 153.192C305.875 156.008 305.107 158.269 304.51 159.976C303.998 161.683 303.742 162.536 303.742 162.536C303.742 162.877 303.827 163.219 303.998 163.56C304.254 163.816 304.382 164.115 304.382 164.456C304.382 165.48 304.979 166.291 306.174 166.888C307.113 167.485 308.222 167.827 309.502 167.912C310.782 167.912 312.361 167.485 314.238 166.632C315.603 165.949 316.883 165.053 318.078 163.944C319.358 162.835 320.681 161.853 322.046 161C322.985 160.403 323.71 159.891 324.222 159.464C324.819 159.037 325.118 158.995 325.118 159.336C325.118 159.677 325.246 159.848 325.502 159.848C325.758 159.848 326.057 159.677 326.398 159.336C326.91 158.653 327.465 158.227 328.062 158.056C328.659 157.8 329.171 157.715 329.598 157.8C330.11 157.8 330.366 157.928 330.366 158.184C330.195 158.952 330.366 159.592 330.878 160.104C330.878 160.445 330.75 160.915 330.494 161.512C330.323 162.024 330.067 162.451 329.726 162.792C329.299 163.389 328.659 164.072 327.806 164.84C327.038 165.608 326.313 166.291 325.63 166.888C324.947 167.4 324.606 167.656 324.606 167.656C324.265 167.571 323.923 167.656 323.582 167.912C323.326 168.168 323.027 168.467 322.686 168.808C322.003 169.405 321.363 169.875 320.766 170.216C320.169 170.472 319.699 170.6 319.358 170.6C318.761 170.941 318.291 171.155 317.95 171.24C317.694 171.325 317.566 171.539 317.566 171.88C316.713 172.733 315.646 173.331 314.366 173.672C313.171 173.928 311.379 174.056 308.99 174.056ZM373.449 177.256C373.108 177.597 372.169 177.725 370.633 177.64C369.182 177.555 367.817 177.213 366.537 176.616C366.366 176.36 366.068 176.104 365.641 175.848C365.214 175.507 364.788 175.123 364.361 174.696C364.02 174.269 363.721 173.885 363.465 173.544C363.294 173.288 362.868 172.819 362.185 172.136C361.502 171.368 360.82 170.643 360.137 169.96C359.454 169.277 358.985 168.808 358.729 168.552C358.388 167.869 357.705 167.016 356.681 165.992C355.657 164.883 354.676 163.859 353.737 162.92C353.14 162.067 352.542 161.341 351.945 160.744C351.348 160.147 350.836 159.72 350.409 159.464C349.982 159.123 349.641 158.952 349.385 158.952C349.385 158.952 349.214 159.507 348.873 160.616C348.617 161.64 348.233 162.963 347.721 164.584C347.294 166.12 346.825 167.699 346.313 169.32C345.886 170.856 345.545 172.093 345.289 173.032C344.692 174.227 344.18 175.037 343.753 175.464C343.326 175.891 342.772 176.104 342.089 176.104C341.15 176.104 340.297 175.677 339.529 174.824C338.846 173.971 338.505 172.733 338.505 171.112C338.164 169.917 338.59 167.315 339.785 163.304C340.98 159.293 342.814 154.173 345.289 147.944C345.63 146.664 346.057 145.341 346.569 143.976C347.081 142.525 347.508 141.331 347.849 140.392C348.702 137.576 349.598 134.973 350.537 132.584C351.561 130.109 352.628 127.635 353.737 125.16C354.846 122.6 355.998 119.869 357.193 116.968C357.961 115.432 358.516 114.323 358.857 113.64C359.198 112.872 359.582 112.104 360.009 111.336C360.436 110.483 361.076 109.245 361.929 107.624C363.806 104.125 365.3 101.395 366.409 99.432C367.518 97.4693 368.372 96.0187 368.969 95.08C369.566 94.1413 370.078 93.4587 370.505 93.032C370.932 92.6053 371.444 92.3067 372.041 92.136C372.638 91.9653 373.236 91.9653 373.833 92.136C374.43 92.2213 374.942 92.52 375.369 93.032C376.052 93.7147 376.436 94.44 376.521 95.208C376.692 95.8907 376.521 96.8293 376.009 98.024C375.582 99.2187 374.729 100.883 373.449 103.016C372.766 104.552 372.212 105.661 371.785 106.344C371.358 107.027 370.932 107.709 370.505 108.392C370.078 109.075 369.396 110.269 368.457 111.976C368.286 112.488 368.03 113.043 367.689 113.64C367.348 114.237 366.964 114.536 366.537 114.536C366.537 114.792 366.409 115.304 366.153 116.072C365.897 116.84 365.598 117.565 365.257 118.248C365.001 119.187 364.574 120.211 363.977 121.32C363.465 122.344 363.081 123.197 362.825 123.88C362.398 124.904 361.716 126.312 360.777 128.104C359.924 129.896 359.07 131.645 358.217 133.352C357.449 134.973 356.98 136.253 356.809 137.192C356.809 137.533 357.065 137.491 357.577 137.064C358.089 136.637 358.644 136.253 359.241 135.912C360.521 134.888 361.972 133.864 363.593 132.84C365.3 131.731 366.921 130.792 368.457 130.024C370.078 129.171 371.401 128.659 372.425 128.488C373.705 128.147 374.729 127.976 375.497 127.976C376.35 127.976 377.204 128.147 378.057 128.488C378.74 128.829 379.294 129.299 379.721 129.896C380.233 130.493 380.66 131.176 381.001 131.944C381.428 132.712 381.726 133.651 381.897 134.76C381.897 135.528 381.598 136.808 381.001 138.6C380.404 140.392 379.678 142.141 378.825 143.848C377.972 145.469 377.118 146.621 376.265 147.304C375.668 147.56 375.198 147.816 374.857 148.072C374.516 148.328 374.345 148.456 374.345 148.456C374.345 148.797 374.174 149.224 373.833 149.736C373.577 150.248 373.108 150.675 372.425 151.016C372.084 151.357 371.7 151.784 371.273 152.296C370.846 152.808 370.633 153.192 370.633 153.448C370.633 153.448 370.633 153.576 370.633 153.832C370.633 154.003 370.633 154.088 370.633 154.088C370.292 154.088 369.78 154.344 369.097 154.856C368.5 155.368 367.732 155.965 366.793 156.648C365.854 157.587 365.172 158.099 364.745 158.184C364.404 158.269 363.892 158.44 363.209 158.696C363.038 158.867 362.825 158.995 362.569 159.08C362.398 159.165 362.185 159.251 361.929 159.336C361.758 159.421 361.588 159.507 361.417 159.592C361.332 159.677 361.289 159.805 361.289 159.976C361.289 160.317 361.673 161.043 362.441 162.152C363.294 163.176 364.276 164.328 365.385 165.608C366.58 166.888 367.689 168.083 368.713 169.192C369.822 170.216 370.633 170.899 371.145 171.24C371.998 171.581 372.596 172.179 372.937 173.032C373.364 173.8 373.62 174.611 373.705 175.464C373.79 176.232 373.705 176.829 373.449 177.256ZM358.089 154.6C358.516 154.259 359.412 153.576 360.777 152.552C362.142 151.443 363.636 150.248 365.257 148.968C366.878 147.603 368.329 146.323 369.609 145.128C370.974 143.848 371.913 142.909 372.425 142.312C373.022 141.715 373.62 140.691 374.217 139.24C374.814 137.789 374.9 136.637 374.473 135.784C374.388 135.443 373.62 135.613 372.169 136.296C370.718 136.979 369.054 137.789 367.177 138.728C365.726 139.581 364.02 140.691 362.057 142.056C360.18 143.421 358.388 144.872 356.681 146.408C355.06 147.944 353.822 149.437 352.969 150.888C352.798 151.485 352.969 152.168 353.481 152.936C353.993 153.704 354.676 154.301 355.529 154.728C356.382 155.069 357.236 155.027 358.089 154.6ZM394.983 177.512C393.362 176.829 391.826 175.933 390.375 174.824C388.924 173.629 387.986 172.648 387.559 171.88C387.559 171.112 387.687 170.6 387.943 170.344C388.199 170.003 388.924 169.875 390.119 169.96C391.399 169.96 393.447 170.131 396.263 170.472C397.287 170.472 398.567 170.387 400.103 170.216C401.639 170.045 403.047 169.789 404.327 169.448C405.692 169.107 406.46 168.68 406.631 168.168C407.058 168.168 407.143 168.04 406.887 167.784C406.631 167.443 406.332 167.101 405.991 166.76C405.65 166.76 405.266 166.632 404.839 166.376C404.412 166.035 404.028 165.864 403.687 165.864C403.687 165.437 403.26 164.968 402.407 164.456C401.639 163.859 400.828 163.389 399.975 163.048C398.098 161.512 396.476 160.147 395.111 158.952C393.746 157.672 393.234 156.819 393.575 156.392C393.575 156.051 393.575 155.88 393.575 155.88C393.575 155.795 393.575 155.752 393.575 155.752C392.978 155.752 392.295 154.899 391.527 153.192C390.844 151.485 390.503 149.949 390.503 148.584C390.503 147.56 390.802 146.28 391.399 144.744C391.996 143.123 392.807 141.459 393.831 139.752C394.855 138.045 395.922 136.637 397.031 135.528C398.567 134.077 400.487 132.541 402.791 130.92C405.095 129.213 407.356 127.72 409.575 126.44C411.879 125.075 413.799 124.179 415.335 123.752C416.871 123.155 418.279 122.856 419.559 122.856C420.924 122.856 422.119 123.155 423.143 123.752C423.996 124.179 424.764 124.819 425.447 125.672C426.215 126.44 426.855 127.251 427.367 128.104C427.964 128.872 428.348 129.555 428.519 130.152C428.519 131.176 428.434 132.328 428.263 133.608C428.092 134.803 427.836 135.869 427.495 136.808C427.239 137.747 426.812 138.216 426.215 138.216C426.215 138.216 426.087 138.259 425.831 138.344C425.66 138.344 425.575 138.557 425.575 138.984C425.575 139.837 424.935 140.819 423.655 141.928C422.034 143.037 420.626 143.72 419.431 143.976C418.236 144.147 417.511 143.677 417.255 142.568C416.999 142.227 416.828 141.928 416.743 141.672C416.658 141.416 416.444 141.288 416.103 141.288C416.103 141.288 415.975 141.16 415.719 140.904C415.463 140.648 415.335 140.221 415.335 139.624C415.335 139.283 415.463 138.984 415.719 138.728C415.975 138.387 416.103 138.216 416.103 138.216C416.53 138.216 417.084 137.747 417.767 136.808C418.45 135.784 419.047 134.717 419.559 133.608C420.156 132.413 420.455 131.603 420.455 131.176C420.455 130.664 420.37 130.365 420.199 130.28C420.114 130.195 419.73 130.152 419.047 130.152C417.852 130.664 416.402 131.347 414.695 132.2C412.988 133.053 411.367 133.907 409.831 134.76C408.38 135.528 407.314 136.253 406.631 136.936C406.29 137.533 406.076 137.917 405.991 138.088C405.906 138.173 405.692 138.216 405.351 138.216C405.351 137.875 405.052 138.045 404.455 138.728C403.943 139.325 403.26 140.179 402.407 141.288C401.639 142.397 400.871 143.507 400.103 144.616C399.42 145.64 398.908 146.408 398.567 146.92C398.396 147.091 398.183 147.603 397.927 148.456C397.756 149.224 397.671 149.949 397.671 150.632C397.33 151.656 397.372 152.381 397.799 152.808C398.226 153.149 399.164 153.917 400.615 155.112C403.602 157.331 405.948 159.165 407.655 160.616C409.362 162.067 410.642 163.261 411.495 164.2C412.348 165.139 412.86 165.992 413.031 166.76C414.567 169.32 415.036 171.283 414.439 172.648C413.842 174.013 412.391 175.208 410.087 176.232C409.234 176.659 407.826 177 405.863 177.256C403.9 177.512 401.895 177.64 399.847 177.64C397.799 177.725 396.178 177.683 394.983 177.512Z" fill="#727070"/>
<path d="M117.538 235.52H122.418V237H115.718V223.06H117.538V235.52ZM137.171 223.06V237H135.351V223.06H137.171ZM161.832 227.1C161.446 226.287 160.886 225.66 160.152 225.22C159.419 224.767 158.566 224.54 157.592 224.54C156.619 224.54 155.739 224.767 154.952 225.22C154.179 225.66 153.566 226.3 153.112 227.14C152.672 227.967 152.452 228.927 152.452 230.02C152.452 231.113 152.672 232.073 153.112 232.9C153.566 233.727 154.179 234.367 154.952 234.82C155.739 235.26 156.619 235.48 157.592 235.48C158.952 235.48 160.072 235.073 160.952 234.26C161.832 233.447 162.346 232.347 162.492 230.96H156.932V229.48H164.432V230.88C164.326 232.027 163.966 233.08 163.352 234.04C162.739 234.987 161.932 235.74 160.932 236.3C159.932 236.847 158.819 237.12 157.592 237.12C156.299 237.12 155.119 236.82 154.052 236.22C152.986 235.607 152.139 234.76 151.512 233.68C150.899 232.6 150.592 231.38 150.592 230.02C150.592 228.66 150.899 227.44 151.512 226.36C152.139 225.267 152.986 224.42 154.052 223.82C155.119 223.207 156.299 222.9 157.592 222.9C159.072 222.9 160.379 223.267 161.512 224C162.659 224.733 163.492 225.767 164.012 227.1H161.832ZM188.579 223.06V237H186.759V230.68H179.659V237H177.839V223.06H179.659V229.18H186.759V223.06H188.579ZM211.266 223.06V224.54H207.466V237H205.646V224.54H201.826V223.06H211.266ZM228.927 237.14C228.007 237.14 227.18 236.98 226.447 236.66C225.727 236.327 225.16 235.873 224.747 235.3C224.333 234.713 224.12 234.04 224.107 233.28H226.047C226.113 233.933 226.38 234.487 226.847 234.94C227.327 235.38 228.02 235.6 228.927 235.6C229.793 235.6 230.473 235.387 230.967 234.96C231.473 234.52 231.727 233.96 231.727 233.28C231.727 232.747 231.58 232.313 231.287 231.98C230.993 231.647 230.627 231.393 230.187 231.22C229.747 231.047 229.153 230.86 228.407 230.66C227.487 230.42 226.747 230.18 226.187 229.94C225.64 229.7 225.167 229.327 224.767 228.82C224.38 228.3 224.187 227.607 224.187 226.74C224.187 225.98 224.38 225.307 224.767 224.72C225.153 224.133 225.693 223.68 226.387 223.36C227.093 223.04 227.9 222.88 228.807 222.88C230.113 222.88 231.18 223.207 232.007 223.86C232.847 224.513 233.32 225.38 233.427 226.46H231.427C231.36 225.927 231.08 225.46 230.587 225.06C230.093 224.647 229.44 224.44 228.627 224.44C227.867 224.44 227.247 224.64 226.767 225.04C226.287 225.427 226.047 225.973 226.047 226.68C226.047 227.187 226.187 227.6 226.467 227.92C226.76 228.24 227.113 228.487 227.527 228.66C227.953 228.82 228.547 229.007 229.307 229.22C230.227 229.473 230.967 229.727 231.527 229.98C232.087 230.22 232.567 230.6 232.967 231.12C233.367 231.627 233.567 232.32 233.567 233.2C233.567 233.88 233.387 234.52 233.027 235.12C232.667 235.72 232.133 236.207 231.427 236.58C230.72 236.953 229.887 237.14 228.927 237.14ZM269.897 237.14C268.604 237.14 267.424 236.84 266.357 236.24C265.29 235.627 264.444 234.78 263.817 233.7C263.204 232.607 262.897 231.38 262.897 230.02C262.897 228.66 263.204 227.44 263.817 226.36C264.444 225.267 265.29 224.42 266.357 223.82C267.424 223.207 268.604 222.9 269.897 222.9C271.204 222.9 272.39 223.207 273.457 223.82C274.524 224.42 275.364 225.26 275.977 226.34C276.59 227.42 276.897 228.647 276.897 230.02C276.897 231.393 276.59 232.62 275.977 233.7C275.364 234.78 274.524 235.627 273.457 236.24C272.39 236.84 271.204 237.14 269.897 237.14ZM269.897 235.56C270.87 235.56 271.744 235.333 272.517 234.88C273.304 234.427 273.917 233.78 274.357 232.94C274.81 232.1 275.037 231.127 275.037 230.02C275.037 228.9 274.81 227.927 274.357 227.1C273.917 226.26 273.31 225.613 272.537 225.16C271.764 224.707 270.884 224.48 269.897 224.48C268.91 224.48 268.03 224.707 267.257 225.16C266.484 225.613 265.87 226.26 265.417 227.1C264.977 227.927 264.757 228.9 264.757 230.02C264.757 231.127 264.977 232.1 265.417 232.94C265.87 233.78 266.484 234.427 267.257 234.88C268.044 235.333 268.924 235.56 269.897 235.56ZM301.26 237H299.44L292.12 225.9V237H290.3V223.04H292.12L299.44 234.12V223.04H301.26V237Z" fill="#727070"/>
<ellipse cx="208.364" cy="38.995" rx="4.95353" ry="4.79341" fill="#727070"/>
<path d="M241.075 32.7657C242.385 38.0724 226.217 8.61066 224.023 7.90333C221.828 7.196 201.783 28.2583 202.032 26.3307C202.28 24.4031 215.869 12.5008 215.869 12.5008L224.173 7.2932C234.608 19.9052 239.766 27.4591 241.075 32.7657Z" fill="#727070"/>
<path d="M241.09 33.4405L239.068 33.4506L238.572 31.794L237.448 29.2998L234.734 23.6189L241.09 33.4405Z" fill="#727070"/>
<path d="M205.799 24.6107L202.807 26.6384L202.19 26.3663L203.377 25.2743L205.501 23.4811L209.974 19.2467L205.799 24.6107Z" fill="#727070"/>
<path d="M219.368 7.71223C224.658 9.19865 190.896 8.63643 189.194 10.1845C187.492 11.7325 196.034 39.4524 194.47 38.2864C192.906 37.1204 189.194 19.5014 189.194 19.5014L188.734 9.75375C204.921 6.95643 214.077 6.22581 219.368 7.71223Z" fill="#727070"/>
<path d="M219.966 8.03268L218.977 9.78507L217.282 9.39642L214.545 9.13731L208.234 8.68044L219.966 8.03268Z" fill="#727070"/>
<path d="M194.823 34.1816L195.122 37.7682L194.579 38.1676L194.209 36.6022L193.688 33.8817L192.189 27.9258L194.823 34.1816Z" fill="#727070"/>
<path d="M231.578 64.4469C227.725 68.3451 244.434 39.1832 243.885 36.9561C243.336 34.729 214.769 28.8641 216.549 28.0603C218.329 27.2565 235.662 32.482 235.662 32.482L244.486 36.762C239.182 52.2163 235.43 60.5488 231.578 64.4469Z" fill="#727070"/>
<path d="M231.008 64.8141L229.936 63.1107L231.093 61.82L232.636 59.5581L236.07 54.2757L231.008 64.8141Z" fill="#727070"/>
<path d="M220.002 30.3396L216.694 28.8773L216.602 28.2124L218.161 28.6418L220.812 29.4937L226.789 31.0474L220.002 30.3396Z" fill="#727070"/>
<path d="M174.95 46.6178C173.458 41.359 190.633 70.252 192.851 70.8841C195.069 71.5161 214.375 49.7828 214.193 51.7177C214.011 53.6526 200.842 66.0113 200.842 66.0113L192.722 71.4989C181.857 59.2503 176.442 51.8766 174.95 46.6178Z" fill="#727070"/>
<path d="M174.912 45.9439L176.932 45.8649L177.485 47.5036L178.695 49.958L181.604 55.543L174.912 45.9439Z" fill="#727070"/>
<path d="M210.488 53.5651L213.407 51.4366L214.034 51.6875L212.885 52.8194L210.824 54.6839L206.5 59.0683L210.488 53.5651Z" fill="#727070"/>
<path d="M185.658 14.6303C189.546 10.7666 172.574 39.7786 173.103 42.0105C173.632 44.2424 202.146 50.3613 200.358 51.1492C198.571 51.9371 181.286 46.5576 181.286 46.5576L172.5 42.1993C177.944 26.7928 181.771 18.494 185.658 14.6303Z" fill="#727070"/>
<path d="M186.231 14.2683L187.288 15.9812L186.119 17.2614L184.556 19.5096L181.074 24.7612L186.231 14.2683Z" fill="#727070"/>
<path d="M196.926 48.8393L200.221 50.3309L200.307 50.9967L198.752 50.5534L196.108 49.6779L190.146 48.0711L196.926 48.8393Z" fill="#727070"/>
<path d="M198.201 71.5545C192.884 70.1621 226.651 70.1252 228.325 68.5472C229.999 66.9692 220.961 39.4054 222.546 40.5434C224.131 41.6814 228.158 59.2318 228.158 59.2318L228.793 68.9697C212.659 72.0538 203.517 72.9468 198.201 71.5545Z" fill="#727070"/>
<path d="M197.598 71.2447L198.555 69.475L200.256 69.8335L202.998 70.044L209.316 70.3888L197.598 71.2447Z" fill="#727070"/>
<path d="M222.266 44.6538L221.903 41.0731L222.439 40.6641L222.837 42.2227L223.407 44.9336L225.012 50.8619L222.266 44.6538Z" fill="#727070"/>
</svg>
