<svg width="91" height="79" viewBox="0 0 91 79" fill="none" xmlns="http://www.w3.org/2000/svg">
<ellipse cx="45.3639" cy="38.995" rx="4.95353" ry="4.79341" fill="#727070"/>
<path d="M78.0755 32.7657C79.3852 38.0723 63.2173 8.61065 61.0226 7.90331C58.8279 7.19598 38.7833 28.2583 39.0318 26.3307C39.2803 24.403 52.8686 12.5008 52.8686 12.5008L61.1726 7.29318C71.6083 19.9051 76.7658 27.4591 78.0755 32.7657Z" fill="#727070"/>
<path d="M78.09 33.4405L76.0685 33.4506L75.5724 31.794L74.4483 29.2999L71.7339 23.6189L78.09 33.4405Z" fill="#727070"/>
<path d="M42.7986 24.6107L39.8069 26.6384L39.1895 26.3663L40.3771 25.2743L42.5008 23.4811L46.9737 19.2467L42.7986 24.6107Z" fill="#727070"/>
<path d="M56.3679 7.71226C61.6585 9.19868 27.8962 8.63646 26.1942 10.1845C24.4922 11.7326 33.0344 39.4524 31.47 38.2864C29.9056 37.1205 26.1942 19.5015 26.1942 19.5015L25.7343 9.75378C41.9215 6.95646 51.0774 6.22584 56.3679 7.71226Z" fill="#727070"/>
<path d="M56.9656 8.03271L55.9769 9.7851L54.2823 9.39645L51.5448 9.13734L45.2336 8.68047L56.9656 8.03271Z" fill="#727070"/>
<path d="M31.8235 34.1816L32.1218 37.7682L31.579 38.1677L31.2093 36.6023L30.6879 33.8817L29.1892 27.9258L31.8235 34.1816Z" fill="#727070"/>
<path d="M68.5776 64.4469C64.7251 68.345 81.4344 39.1832 80.8854 36.9561C80.3364 34.729 51.7688 28.8641 53.5491 28.0603C55.3295 27.2565 72.6622 32.482 72.6622 32.482L81.4864 36.762C76.182 52.2163 72.4301 60.5487 68.5776 64.4469Z" fill="#727070"/>
<path d="M68.0078 64.814L66.9359 63.1106L68.0927 61.82L69.636 59.5581L73.07 54.2757L68.0078 64.814Z" fill="#727070"/>
<path d="M57.0023 30.3396L53.6936 28.8773L53.6017 28.2123L55.1608 28.6418L57.8124 29.4937L63.7888 31.0474L57.0023 30.3396Z" fill="#727070"/>
<path d="M11.95 46.6178C10.4578 41.3589 27.6334 70.252 29.8512 70.884C32.069 71.5161 51.3746 49.7827 51.1928 51.7177C51.011 53.6526 37.8416 66.0112 37.8416 66.0112L29.7223 71.4989C18.8574 59.2502 13.4422 51.8766 11.95 46.6178Z" fill="#727070"/>
<path d="M11.9122 45.9439L13.9322 45.8649L14.4851 47.5036L15.6946 49.958L18.6036 55.543L11.9122 45.9439Z" fill="#727070"/>
<path d="M47.4876 53.5651L50.4075 51.4366L51.0339 51.6875L49.8847 52.8194L47.8242 54.6839L43.5001 59.0683L47.4876 53.5651Z" fill="#727070"/>
<path d="M22.6581 14.6303C26.5456 10.7666 9.57425 39.7786 10.1032 42.0105C10.6321 44.2424 39.1456 50.3613 37.3581 51.1492C35.5706 51.9371 18.2856 46.5576 18.2856 46.5576L9.50038 42.1993C14.9438 26.7928 18.7707 18.4941 22.6581 14.6303Z" fill="#727070"/>
<path d="M23.2313 14.2683L24.2877 15.9811L23.1194 17.2614L21.5558 19.5095L18.0743 24.7611L23.2313 14.2683Z" fill="#727070"/>
<path d="M33.9257 48.8393L37.2211 50.3309L37.307 50.9967L35.7518 50.5534L33.108 49.6779L27.1459 48.0711L33.9257 48.8393Z" fill="#727070"/>
<path d="M35.201 71.5545C29.8846 70.1621 63.6515 70.1252 65.3255 68.5472C66.9994 66.9692 57.9606 39.4054 59.5457 40.5434C61.1307 41.6814 65.1581 59.2318 65.1581 59.2318L65.7931 68.9697C49.6587 72.0538 40.5173 72.9468 35.201 71.5545Z" fill="#727070"/>
<path d="M34.5976 71.2447L35.5547 69.475L37.256 69.8335L39.9977 70.044L46.3162 70.3888L34.5976 71.2447Z" fill="#727070"/>
<path d="M59.266 44.6538L58.9033 41.0731L59.4388 40.6641L59.8366 42.2227L60.4068 44.9336L62.0122 50.8619L59.266 44.6538Z" fill="#727070"/>
</svg>
