<svg width="91" height="79" viewBox="0 0 91 79" fill="none" xmlns="http://www.w3.org/2000/svg">
<ellipse cx="45.3639" cy="38.995" rx="4.95353" ry="4.79341" fill="#DADADA"/>
<path d="M78.0755 32.7657C79.3852 38.0723 63.2173 8.61065 61.0226 7.90331C58.8279 7.19598 38.7833 28.2583 39.0318 26.3307C39.2803 24.403 52.8686 12.5008 52.8686 12.5008L61.1726 7.29318C71.6083 19.9051 76.7658 27.4591 78.0755 32.7657Z" fill="#DADADA"/>
<path d="M78.09 33.4405L76.0685 33.4506L75.5724 31.794L74.4483 29.2998L71.7339 23.6189L78.09 33.4405Z" fill="#DADADA"/>
<path d="M42.7987 24.6107L39.807 26.6384L39.1896 26.3663L40.3772 25.2743L42.5009 23.4811L46.9738 19.2467L42.7987 24.6107Z" fill="#DADADA"/>
<path d="M56.3679 7.71223C61.6585 9.19865 27.8962 8.63643 26.1942 10.1845C24.4922 11.7325 33.0344 39.4524 31.47 38.2864C29.9056 37.1204 26.1942 19.5014 26.1942 19.5014L25.7343 9.75375C41.9215 6.95643 51.0774 6.22581 56.3679 7.71223Z" fill="#DADADA"/>
<path d="M56.9656 8.03265L55.9769 9.78504L54.2823 9.39638L51.5448 9.13728L45.2335 8.68041L56.9656 8.03265Z" fill="#DADADA"/>
<path d="M31.8235 34.1816L32.1218 37.7682L31.579 38.1677L31.2093 36.6023L30.6879 33.8817L29.1892 27.9258L31.8235 34.1816Z" fill="#DADADA"/>
<path d="M68.5776 64.4469C64.7251 68.3451 81.4344 39.1832 80.8854 36.9561C80.3364 34.729 51.7688 28.8641 53.5491 28.0603C55.3295 27.2565 72.6622 32.482 72.6622 32.482L81.4864 36.762C76.182 52.2163 72.4301 60.5488 68.5776 64.4469Z" fill="#DADADA"/>
<path d="M68.0077 64.8141L66.9358 63.1107L68.0927 61.82L69.6359 59.5581L73.0699 54.2757L68.0077 64.8141Z" fill="#DADADA"/>
<path d="M57.0023 30.3396L53.6936 28.8773L53.6017 28.2124L55.1608 28.6418L57.8124 29.4937L63.7888 31.0474L57.0023 30.3396Z" fill="#DADADA"/>
<path d="M11.9499 46.6178C10.4577 41.359 27.6333 70.252 29.8511 70.8841C32.0689 71.5162 51.3745 49.7828 51.1927 51.7177C51.0109 53.6527 37.8416 66.0113 37.8416 66.0113L29.7223 71.499C18.8573 59.2503 13.4421 51.8766 11.9499 46.6178Z" fill="#DADADA"/>
<path d="M11.9122 45.9439L13.9322 45.8649L14.4851 47.5036L15.6946 49.958L18.6036 55.543L11.9122 45.9439Z" fill="#DADADA"/>
<path d="M47.4875 53.5651L50.4074 51.4366L51.0339 51.6874L49.8847 52.8193L47.8242 54.6839L43.5001 59.0683L47.4875 53.5651Z" fill="#DADADA"/>
<path d="M22.6581 14.6303C26.5456 10.7666 9.57422 39.7786 10.1031 42.0105C10.632 44.2424 39.1456 50.3612 37.3581 51.1492C35.5706 51.9371 18.2856 46.5576 18.2856 46.5576L9.50035 42.1992C14.9438 26.7928 18.7707 18.494 22.6581 14.6303Z" fill="#DADADA"/>
<path d="M23.2313 14.2683L24.2878 15.9811L23.1194 17.2614L21.5558 19.5095L18.0744 24.7611L23.2313 14.2683Z" fill="#DADADA"/>
<path d="M33.9257 48.8392L37.2212 50.3309L37.3071 50.9966L35.7518 50.5534L33.108 49.6779L27.1459 48.0711L33.9257 48.8392Z" fill="#DADADA"/>
<path d="M35.2009 71.5545C29.8845 70.1622 63.6514 70.1253 65.3254 68.5472C66.9993 66.9692 57.9605 39.4054 59.5456 40.5434C61.1307 41.6815 65.158 59.2318 65.158 59.2318L65.793 68.9698C49.6586 72.0538 40.5172 72.9468 35.2009 71.5545Z" fill="#DADADA"/>
<path d="M34.5976 71.2447L35.5546 69.475L37.256 69.8335L39.9977 70.044L46.3161 70.3888L34.5976 71.2447Z" fill="#DADADA"/>
<path d="M59.266 44.6538L58.9033 41.0731L59.4388 40.6641L59.8365 42.2227L60.4068 44.9336L62.0122 50.8619L59.266 44.6538Z" fill="#DADADA"/>
</svg>
